<svg width="0" height="0" class="hidden">
    <symbol xmlns="http://www.w3.org/2000/svg" fill="none" viewBox="0 0 24 24" id="arch">
        <path d="M9 14V10C9 9.71667 9.09583 9.47917 9.2875 9.2875C9.47917 9.09583 9.71667 9 10 9H14C14.2833 9 14.5208 9.09583 14.7125 9.2875C14.9042 9.47917 15 9.71667 15 10V14C15 14.2833 14.9042 14.5208 14.7125 14.7125C14.5208 14.9042 14.2833 15 14 15H10C9.71667 15 9.47917 14.9042 9.2875 14.7125C9.09583 14.5208 9 14.2833 9 14ZM11 13H13V11H11V13ZM9 20V19H7C6.45 19 5.97917 18.8042 5.5875 18.4125C5.19583 18.0208 5 17.55 5 17V15H4C3.71667 15 3.47917 14.9042 3.2875 14.7125C3.09583 14.5208 3 14.2833 3 14C3 13.7167 3.09583 13.4792 3.2875 13.2875C3.47917 13.0958 3.71667 13 4 13H5V11H4C3.71667 11 3.47917 10.9042 3.2875 10.7125C3.09583 10.5208 3 10.2833 3 10C3 9.71667 3.09583 9.47917 3.2875 9.2875C3.47917 9.09583 3.71667 9 4 9H5V7C5 6.45 5.19583 5.97917 5.5875 5.5875C5.97917 5.19583 6.45 5 7 5H9V4C9 3.71667 9.09583 3.47917 9.2875 3.2875C9.47917 3.09583 9.71667 3 10 3C10.2833 3 10.5208 3.09583 10.7125 3.2875C10.9042 3.47917 11 3.71667 11 4V5H13V4C13 3.71667 13.0958 3.47917 13.2875 3.2875C13.4792 3.09583 13.7167 3 14 3C14.2833 3 14.5208 3.09583 14.7125 3.2875C14.9042 3.47917 15 3.71667 15 4V5H17C17.55 5 18.0208 5.19583 18.4125 5.5875C18.8042 5.97917 19 6.45 19 7V9H20C20.2833 9 20.5208 9.09583 20.7125 9.2875C20.9042 9.47917 21 9.71667 21 10C21 10.2833 20.9042 10.5208 20.7125 10.7125C20.5208 10.9042 20.2833 11 20 11H19V13H20C20.2833 13 20.5208 13.0958 20.7125 13.2875C20.9042 13.4792 21 13.7167 21 14C21 14.2833 20.9042 14.5208 20.7125 14.7125C20.5208 14.9042 20.2833 15 20 15H19V17C19 17.55 18.8042 18.0208 18.4125 18.4125C18.0208 18.8042 17.55 19 17 19H15V20C15 20.2833 14.9042 20.5208 14.7125 20.7125C14.5208 20.9042 14.2833 21 14 21C13.7167 21 13.4792 20.9042 13.2875 20.7125C13.0958 20.5208 13 20.2833 13 20V19H11V20C11 20.2833 10.9042 20.5208 10.7125 20.7125C10.5208 20.9042 10.2833 21 10 21C9.71667 21 9.47917 20.9042 9.2875 20.7125C9.09583 20.5208 9 20.2833 9 20ZM17 17V7H7V17H17Z" fill="#4885FF"/>
    </symbol>
    <symbol xmlns="http://www.w3.org/2000/svg" fill="none" viewBox="0 0 24 24" id="blue-globe">
        <path d="M12.0008 21.5078C10.6868 21.5078 9.45169 21.2585 8.29552 20.7598C7.13936 20.2611 6.13369 19.5844 5.27852 18.7296C4.42336 17.8747 3.74627 16.8695 3.24727 15.7138C2.74844 14.5581 2.49902 13.3234 2.49902 12.0096C2.49902 10.6956 2.74836 9.46048 3.24702 8.30431C3.74569 7.14815 4.42244 6.14248 5.27727 5.28731C6.13211 4.43215 7.13736 3.75506 8.29302 3.25606C9.44869 2.75723 10.6834 2.50781 11.9973 2.50781C13.3113 2.50781 14.5464 2.75715 15.7025 3.25581C16.8587 3.75448 17.8644 4.43123 18.7195 5.28606C19.5747 6.1409 20.2518 7.14615 20.7508 8.30181C21.2496 9.45748 21.499 10.6922 21.499 12.0061C21.499 13.3201 21.2497 14.5551 20.751 15.7113C20.2524 16.8675 19.5756 17.8731 18.7208 18.7283C17.8659 19.5835 16.8607 20.2606 15.705 20.7596C14.5494 21.2584 13.3146 21.5078 12.0008 21.5078ZM11.999 20.0078C14.2324 20.0078 16.124 19.2328 17.674 17.6828C19.224 16.1328 19.999 14.2411 19.999 12.0078C19.999 11.8911 19.9964 11.7719 19.9913 11.6501C19.9861 11.5282 19.9804 11.4193 19.974 11.3233C19.9099 11.7873 19.7089 12.1712 19.371 12.4751C19.0334 12.7789 18.6273 12.9308 18.1528 12.9308H15.8835C15.3759 12.9308 14.9413 12.7502 14.5798 12.3891C14.2183 12.0277 14.0375 11.5934 14.0375 11.0861V10.1636H10.3453V8.31881C10.3453 7.81148 10.526 7.3764 10.8875 7.01356C11.249 6.65073 11.6836 6.46931 12.1913 6.46931H13.1145V6.08481C13.1145 5.65015 13.2459 5.29015 13.5088 5.00481C13.7714 4.71965 14.0881 4.52065 14.4588 4.40781C14.0676 4.27965 13.6689 4.1809 13.2625 4.11156C12.8562 4.0424 12.435 4.00781 11.999 4.00781C9.76569 4.00781 7.87402 4.78281 6.32402 6.33281C4.77402 7.88281 3.99902 9.77448 3.99902 12.0078V12.1521C3.99902 12.1969 4.00219 12.245 4.00852 12.2963H8.74902C9.77202 12.2963 10.6432 12.6559 11.3625 13.3751C12.0817 14.0944 12.4413 14.9641 12.4413 15.9843V16.9116H9.67202V19.6521C10.0439 19.7674 10.4227 19.8556 10.8085 19.9166C11.1945 19.9774 11.5914 20.0078 11.999 20.0078Z" fill="#4885FF"/>
    </symbol>
    <symbol xmlns="http://www.w3.org/2000/svg" fill="none" viewBox="0 0 24 24" id="circle-star">
        <path d="M12.006 21.9935C10.6226 21.9935 9.32265 21.731 8.10598 21.206C6.88931 20.681 5.83098 19.9685 4.93098 19.0685C4.03098 18.1685 3.31848 17.1102 2.79348 15.8935C2.26848 14.6769 2.00598 13.3769 2.00598 11.9935C2.00598 10.6102 2.26848 9.3102 2.79348 8.09353C3.31848 6.87686 4.03098 5.81853 4.93098 4.91853C5.83098 4.01853 6.88931 3.30603 8.10598 2.78103C9.32265 2.25603 10.6226 1.99353 12.006 1.99353C13.3893 1.99353 14.6893 2.25603 15.906 2.78103C17.1226 3.30603 18.181 4.01853 19.081 4.91853C19.981 5.81853 20.6935 6.87686 21.2185 8.09353C21.7435 9.3102 22.006 10.6102 22.006 11.9935C22.006 13.3769 21.7435 14.6769 21.2185 15.8935C20.6935 17.1102 19.981 18.1685 19.081 19.0685C18.181 19.9685 17.1226 20.681 15.906 21.206C14.6893 21.731 13.3893 21.9935 12.006 21.9935Z" fill="white"/>
        <path d="M12.006 14.9435L14.781 17.0435C14.981 17.1769 15.181 17.181 15.381 17.056C15.581 16.931 15.6393 16.7519 15.556 16.5185L14.506 13.0435L17.231 11.0935C17.431 10.9435 17.4893 10.756 17.406 10.531C17.3226 10.306 17.1643 10.1935 16.931 10.1935H13.606L12.481 6.54353C12.3976 6.3102 12.2393 6.19353 12.006 6.19353C11.7726 6.19353 11.6143 6.3102 11.531 6.54353L10.406 10.1935H7.08098C6.84765 10.1935 6.68931 10.306 6.60598 10.531C6.52265 10.756 6.58098 10.9435 6.78098 11.0935L9.50598 13.0435L8.45598 16.5185C8.37265 16.7519 8.43098 16.931 8.63098 17.056C8.83098 17.181 9.03098 17.1769 9.23098 17.0435L12.006 14.9435ZM12.006 21.9935C10.6226 21.9935 9.32265 21.731 8.10598 21.206C6.88931 20.681 5.83098 19.9685 4.93098 19.0685C4.03098 18.1685 3.31848 17.1102 2.79348 15.8935C2.26848 14.6769 2.00598 13.3769 2.00598 11.9935C2.00598 10.6102 2.26848 9.3102 2.79348 8.09353C3.31848 6.87686 4.03098 5.81853 4.93098 4.91853C5.83098 4.01853 6.88931 3.30603 8.10598 2.78103C9.32265 2.25603 10.6226 1.99353 12.006 1.99353C13.3893 1.99353 14.6893 2.25603 15.906 2.78103C17.1226 3.30603 18.181 4.01853 19.081 4.91853C19.981 5.81853 20.6935 6.87686 21.2185 8.09353C21.7435 9.3102 22.006 10.6102 22.006 11.9935C22.006 13.3769 21.7435 14.6769 21.2185 15.8935C20.6935 17.1102 19.981 18.1685 19.081 19.0685C18.181 19.9685 17.1226 20.681 15.906 21.206C14.6893 21.731 13.3893 21.9935 12.006 21.9935Z" fill="#4885FF"/>
    </symbol>
    <symbol xmlns="http://www.w3.org/2000/svg" fill="none" viewBox="0 0 24 24" id="gpu">
        <path d="M11.1 11.9L8.40002 19.35C8.38336 19.4 8.34169 19.4583 8.27502 19.525L7.47502 20.3C7.32502 20.45 7.15419 20.4875 6.96252 20.4125C6.77086 20.3375 6.65836 20.2 6.62502 20L6.52502 18.925L6.55002 18.7L9.35002 10.95C9.60002 11.1833 9.87086 11.3792 10.1625 11.5375C10.4542 11.6958 10.7667 11.8167 11.1 11.9ZM12 11C11.1667 11 10.4584 10.7083 9.87502 10.125C9.29169 9.54167 9.00002 8.83333 9.00002 8C9.00002 7.35 9.18752 6.77083 9.56252 6.2625C9.93752 5.75417 10.4167 5.4 11 5.2V4C11 3.71667 11.0959 3.47917 11.2875 3.2875C11.4792 3.09583 11.7167 3 12 3C12.2834 3 12.5209 3.09583 12.7125 3.2875C12.9042 3.47917 13 3.71667 13 4V5.2C13.5834 5.4 14.0625 5.75417 14.4375 6.2625C14.8125 6.77083 15 7.35 15 8C15 8.83333 14.7084 9.54167 14.125 10.125C13.5417 10.7083 12.8334 11 12 11ZM12 9C12.2834 9 12.5209 8.90417 12.7125 8.7125C12.9042 8.52083 13 8.28333 13 8C13 7.71667 12.9042 7.47917 12.7125 7.2875C12.5209 7.09583 12.2834 7 12 7C11.7167 7 11.4792 7.09583 11.2875 7.2875C11.0959 7.47917 11 7.71667 11 8C11 8.28333 11.0959 8.52083 11.2875 8.7125C11.4792 8.90417 11.7167 9 12 9ZM12.9 11.9C13.2334 11.8167 13.5459 11.6958 13.8375 11.5375C14.1292 11.3792 14.4 11.1833 14.65 10.95L17.45 18.7C17.4667 18.75 17.475 18.825 17.475 18.925L17.375 20C17.3417 20.2 17.2292 20.3375 17.0375 20.4125C16.8459 20.4875 16.675 20.45 16.525 20.3L15.725 19.525L15.6 19.35L12.9 11.9Z" fill="#4885FF"/>
    </symbol>
    <symbol xmlns="http://www.w3.org/2000/svg" fill="none" viewBox="0 0 24 24" id="green-shield-verified">
        <path d="M10.9518 12.7014L9.55183 11.3014C9.35183 11.1014 9.1185 11.0014 8.85183 11.0014C8.58516 11.0014 8.35183 11.1014 8.15183 11.3014C7.95183 11.5014 7.85183 11.7389 7.85183 12.0139C7.85183 12.2889 7.95183 12.5264 8.15183 12.7264L10.2518 14.8514C10.4518 15.0514 10.6852 15.1514 10.9518 15.1514C11.2185 15.1514 11.4518 15.0514 11.6518 14.8514L15.9018 10.6014C16.1018 10.4014 16.2018 10.1639 16.2018 9.88887C16.2018 9.61387 16.1018 9.37637 15.9018 9.17637C15.7018 8.97637 15.4643 8.87637 15.1893 8.87637C14.9143 8.87637 14.6768 8.97637 14.4768 9.17637L10.9518 12.7014ZM12.0018 21.9014C11.8852 21.9014 11.7768 21.893 11.6768 21.8764C11.5768 21.8597 11.4768 21.8347 11.3768 21.8014C9.12683 21.0514 7.33516 19.6639 6.00183 17.6389C4.6685 15.6139 4.00183 13.4347 4.00183 11.1014V6.37637C4.00183 5.9597 4.12266 5.5847 4.36433 5.25137C4.606 4.91803 4.9185 4.67637 5.30183 4.52637L11.3018 2.27637C11.5352 2.19303 11.7685 2.15137 12.0018 2.15137C12.2352 2.15137 12.4685 2.19303 12.7018 2.27637L18.7018 4.52637C19.0852 4.67637 19.3977 4.91803 19.6393 5.25137C19.881 5.5847 20.0018 5.9597 20.0018 6.37637V11.1014C20.0018 13.4347 19.3352 15.6139 18.0018 17.6389C16.6685 19.6639 14.8768 21.0514 12.6268 21.8014C12.5268 21.8347 12.4268 21.8597 12.3268 21.8764C12.2268 21.893 12.1185 21.9014 12.0018 21.9014Z" fill="#016C01"/>
    </symbol>
    <symbol xmlns="http://www.w3.org/2000/svg" fill="none" viewBox="0 0 24 24" id="green-tick">
        <path d="M10.5798 14.154L8.25667 11.8309C8.11822 11.6924 7.94419 11.6216 7.73457 11.6184C7.52496 11.6152 7.34771 11.686 7.20285 11.8309C7.05798 11.9758 6.98555 12.1514 6.98555 12.3578C6.98555 12.5642 7.05798 12.7398 7.20285 12.8847L9.94707 15.6289C10.1278 15.8097 10.3387 15.9001 10.5798 15.9001C10.8208 15.9001 11.0317 15.8097 11.2124 15.6289L16.7759 10.0655C16.9144 9.92701 16.9852 9.75298 16.9884 9.54336C16.9916 9.33375 16.9208 9.15651 16.7759 9.01164C16.631 8.86677 16.4554 8.79434 16.249 8.79434C16.0426 8.79434 15.867 8.86677 15.7221 9.01164L10.5798 14.154ZM12.0007 21.5078C10.6867 21.5078 9.45171 21.2584 8.29557 20.7598C7.13942 20.2611 6.13374 19.5843 5.27852 18.7295C4.42329 17.8747 3.74623 16.8694 3.24735 15.7138C2.74847 14.5582 2.49902 13.3234 2.49902 12.0095C2.49902 10.6955 2.74836 9.4605 3.24702 8.30436C3.74569 7.14821 4.42244 6.14253 5.27727 5.28731C6.13212 4.43208 7.13737 3.75502 8.293 3.25614C9.44862 2.75726 10.6834 2.50781 11.9973 2.50781C13.3113 2.50781 14.5463 2.75715 15.7024 3.25581C16.8586 3.75448 17.8643 4.43123 18.7195 5.28606C19.5747 6.14091 20.2518 7.14616 20.7507 8.30179C21.2495 9.45741 21.499 10.6922 21.499 12.0061C21.499 13.32 21.2496 14.5551 20.751 15.7112C20.2523 16.8674 19.5756 17.873 18.7207 18.7283C17.8659 19.5835 16.8606 20.2606 15.705 20.7594C14.5494 21.2583 13.3146 21.5078 12.0007 21.5078ZM11.999 20.0078C14.2323 20.0078 16.124 19.2328 17.674 17.6828C19.224 16.1328 19.999 14.2411 19.999 12.0078C19.999 9.77446 19.224 7.88279 17.674 6.33279C16.124 4.78279 14.2323 4.00779 11.999 4.00779C9.76567 4.00779 7.874 4.78279 6.324 6.33279C4.774 7.88279 3.999 9.77446 3.999 12.0078C3.999 14.2411 4.774 16.1328 6.324 17.6828C7.874 19.2328 9.76567 20.0078 11.999 20.0078Z" fill="#04A231"/>
    </symbol>
    <symbol xmlns="http://www.w3.org/2000/svg" fill="none" viewBox="0 0 24 24" id="icon_discount">
        <path d="M21.4055 14.2527L14.2555 21.4027C14.0555 21.6027 13.8305 21.7527 13.5805 21.8527C13.3305 21.9527 13.0805 22.0027 12.8305 22.0027C12.5805 22.0027 12.3305 21.9527 12.0805 21.8527C11.8305 21.7527 11.6055 21.6027 11.4055 21.4027L2.58049 12.5777C2.39716 12.3944 2.25549 12.1819 2.15549 11.9402C2.05549 11.6985 2.00549 11.4444 2.00549 11.1777V4.00269C2.00549 3.45269 2.20133 2.98185 2.59299 2.59019C2.98466 2.19852 3.45549 2.00269 4.00549 2.00269H11.1805C11.4472 2.00269 11.7055 2.05685 11.9555 2.16519C12.2055 2.27352 12.4222 2.41935 12.6055 2.60269L21.4055 11.4277C21.6055 11.6277 21.7513 11.8527 21.843 12.1027C21.9347 12.3527 21.9805 12.6027 21.9805 12.8527C21.9805 13.1027 21.9347 13.3485 21.843 13.5902C21.7513 13.8319 21.6055 14.0527 21.4055 14.2527ZM6.50549 8.00269C6.92216 8.00269 7.27633 7.85685 7.56799 7.56519C7.85966 7.27352 8.00549 6.91935 8.00549 6.50269C8.00549 6.08602 7.85966 5.73185 7.56799 5.44019C7.27633 5.14852 6.92216 5.00269 6.50549 5.00269C6.08883 5.00269 5.73466 5.14852 5.44299 5.44019C5.15133 5.73185 5.00549 6.08602 5.00549 6.50269C5.00549 6.91935 5.15133 7.27352 5.44299 7.56519C5.73466 7.85685 6.08883 8.00269 6.50549 8.00269Z" fill="#4885FF"/>
    </symbol>
    <symbol xmlns="http://www.w3.org/2000/svg" fill="none" viewBox="0 0 24 24" id="memory">
        <path d="M17.0039 3H5.00391C3.89391 3 3.00391 3.9 3.00391 5V19C3.00391 20.1 3.89391 21 5.00391 21H19.0039C20.1039 21 21.0039 20.1 21.0039 19V7L17.0039 3ZM12.0039 19C10.3439 19 9.00391 17.66 9.00391 16C9.00391 14.34 10.3439 13 12.0039 13C13.6639 13 15.0039 14.34 15.0039 16C15.0039 17.66 13.6639 19 12.0039 19ZM15.0039 9H5.00391V5H15.0039V9Z" fill="#4885FF"/>
    </symbol>
    <symbol xmlns="http://www.w3.org/2000/svg" fill="none" viewBox="0 0 24 24" id="preorder">
        <path fill-rule="evenodd" clip-rule="evenodd" d="M8.6465 4.06817L17.1354 4.63874C17.7375 4.67921 18.2008 4.71035 18.557 4.78285C18.9182 4.85634 19.186 4.9753 19.3851 5.20317C19.5843 5.43104 19.6663 5.7123 19.6908 6.08005C19.715 6.44281 19.6839 6.90605 19.6434 7.50815L19.1755 14.47C16.6396 14.7745 15.5361 14.6297 15.4636 14.9859C15.3901 15.3471 15.8361 14.7965 15.6082 14.9956C15.3803 15.1948 16.1497 14.5472 15.7819 14.5717C15.4191 14.5958 15.5263 14.4093 14.9243 14.3688L8.04242 15.2132C7.44033 15.1727 7.36732 15.5068 7.01106 15.4343C6.64989 15.3608 5.76661 16.0708 5.56745 15.843C5.36828 15.6151 5.28622 15.3339 5.26172 14.9661C5.23755 14.6033 5.26869 14.1401 5.30916 13.538L5.77709 6.57614C5.81756 5.97404 5.8487 5.5108 5.92119 5.15454C5.99469 4.79337 6.11365 4.52563 6.34152 4.32646C6.56939 4.12729 6.85065 4.04524 7.2184 4.02073C7.58116 3.99656 8.0444 4.0277 8.6465 4.06817ZM7.23326 4.24367C6.89044 4.26651 6.66486 4.3406 6.48856 4.49469C6.31226 4.64878 6.20865 4.86242 6.14014 5.1991C6.07098 5.53895 6.04061 5.98723 5.99943 6.5999L5.53268 13.5442C5.4915 14.1569 5.4616 14.6052 5.48466 14.9512C5.5075 15.2941 5.58159 15.5196 5.73568 15.6959C5.88977 15.8722 6.10341 15.9758 6.44009 16.0444C6.77993 16.1135 7.22821 16.1439 7.84089 16.1851L14.9728 13.646C15.5855 13.6872 15.465 14.161 15.8111 14.138C16.1539 14.1152 16.2422 13.8973 16.4184 13.7432C16.5947 13.5891 17.3716 14.0033 17.4401 13.6666C17.5093 13.3268 18.912 15.0589 18.9531 14.4462L18.0973 10.3709C18.1384 9.75819 17.8701 10.1192 17.847 9.77319C17.8242 9.43038 17.3366 9.03353 17.1825 8.85724C17.0284 8.68094 17.1632 7.74011 16.8265 7.6716C16.4867 7.60244 17.7244 4.90227 17.1117 4.86109L8.64029 4.29169C8.02761 4.25051 7.5793 4.22061 7.23326 4.24367Z" fill="url(#paint0_radial_54_171)"/>
        <path d="M19.5775 8.43766C19.5148 8.72388 18.7726 8.96442 18.3389 8.93527L14.1985 20.8451C17.321 21.055 18.6605 21.4354 18.8591 19.1254L19.5775 8.43766Z" fill="#F6C372"/>
        <path d="M6.52408 19.9943L6.52408 19.9943L6.52165 19.9941C5.89364 19.9519 5.45493 19.9216 5.12741 19.8418C4.81472 19.7656 4.63499 19.6516 4.50413 19.457C4.35988 19.2426 4.2649 18.9555 4.22181 18.5125C4.17851 18.0672 4.18918 17.483 4.24269 16.6869L4.85444 7.58541C4.90795 6.78927 4.97555 6.20893 5.07805 5.77346C5.18004 5.34019 5.31259 5.0684 5.48424 4.87517C5.63996 4.69987 5.83333 4.61092 6.1534 4.57728C6.48865 4.54206 6.92747 4.57068 7.55548 4.61289L16.1584 5.19112C16.7864 5.23333 17.2251 5.2637 17.5526 5.34347C17.8653 5.41963 18.045 5.53366 18.1759 5.72823L18.3833 5.5887L18.1759 5.72823C18.3132 5.93241 18.3842 6.20734 18.4006 6.65395C18.417 7.10259 18.3781 7.68639 18.324 8.49075L17.7123 17.5922C17.6582 18.3966 17.6187 18.9804 17.5423 19.4228C17.4663 19.8632 17.3592 20.1261 17.1958 20.3101C17.0331 20.4933 16.8295 20.5999 16.5099 20.6518C16.1784 20.7056 15.7392 20.6979 15.1202 20.6563C15.1197 20.6563 15.1193 20.6563 15.1189 20.6562L6.52408 19.9943Z" fill="url(#paint1_linear_54_171)" stroke="url(#paint2_linear_54_171)" stroke-width="0.5"/>
        <path d="M4.81786 6.52057C4.8998 5.30152 4.94077 4.69199 5.34493 4.33874C5.7491 3.98548 6.35862 4.02645 7.57768 4.10839L16.0491 4.67778C17.2681 4.75972 17.8776 4.80069 18.2309 5.20485C18.5842 5.60902 18.5432 6.21855 18.4612 7.4376L18.3683 8.81977L4.72496 7.90274L4.81786 6.52057Z" fill="url(#paint3_radial_54_171)"/>
        <path fill-rule="evenodd" clip-rule="evenodd" d="M7.57613 3.99632L16.0651 4.5669C16.6672 4.60737 17.1304 4.6385 17.4867 4.711C17.8478 4.7845 18.1156 4.90346 18.3148 5.13133C18.5139 5.3592 18.596 5.64045 18.6205 6.00821C18.6447 6.37097 18.6135 6.83421 18.573 7.4363L18.4721 8.93872L4.57587 8.0047L4.67685 6.50228C4.71732 5.90019 4.77833 5.43896 4.85083 5.0827C4.92433 4.72153 5.04329 4.45378 5.27116 4.25461C5.49903 4.05545 5.78028 3.97339 6.14804 3.94889C6.5108 3.92472 6.97404 3.95585 7.57613 3.99632ZM6.16289 4.17183C5.82008 4.19467 5.59449 4.26876 5.4182 4.42285C5.2419 4.57694 5.13829 4.79058 5.06978 5.12725C5.00062 5.4671 4.97025 5.91538 4.92907 6.52806L4.84366 7.79877L18.2641 8.70081L18.3495 7.4301C18.3907 6.81742 18.4206 6.36911 18.3975 6.02306C18.3747 5.68025 18.3006 5.45466 18.1465 5.27837C17.9924 5.10207 17.7788 4.99846 17.4421 4.92995C17.1023 4.86079 16.654 4.83042 16.0413 4.78924L7.56993 4.21985C6.95725 4.17867 6.50894 4.14877 6.16289 4.17183Z" fill="#F6C372"/>
        <path d="M5.58071 4.9988C5.53381 5.0666 5.50212 5.134 5.48172 5.1984C5.39531 5.47117 5.69962 5.77097 5.80969 5.50685C5.92316 5.23456 6.10867 5.05668 6.22618 4.89103C6.34368 4.72537 6.18618 4.6532 6.1141 4.64276C6.04202 4.63232 5.81014 4.66712 5.58071 4.9988Z" fill="white"/>
        <path d="M5.57017 6.15686C5.47418 6.11905 5.40753 6.21684 5.38247 6.28421C5.35269 6.39417 5.38766 6.50289 5.4544 6.54657C5.54021 6.60271 5.61827 6.52399 5.64469 6.46418C5.6711 6.40437 5.69016 6.20411 5.57017 6.15686Z" fill="white"/>
        <path d="M9.10328 5.55454C9.08301 5.85619 8.82204 6.08428 8.52039 6.06401C8.21874 6.04374 7.99064 5.78277 8.01092 5.48112C8.03119 5.17947 8.29216 4.95137 8.59381 4.97165C8.89546 4.99192 9.12356 5.25289 9.10328 5.55454Z" fill="#80580D"/>
        <path fill-rule="evenodd" clip-rule="evenodd" d="M9.4917 3.1951C9.33607 3.16454 9.13012 3.22111 8.96456 3.50113C8.82817 3.73182 8.75361 4.10514 8.723 4.50293C8.69293 4.8937 8.70715 5.27871 8.72925 5.51098L8.36224 5.54591C8.33841 5.29549 8.32352 4.88916 8.35542 4.47465C8.38677 4.06716 8.46525 3.62126 8.64721 3.3135C8.87959 2.92047 9.23074 2.76815 9.56274 2.83334C9.8816 2.89596 10.145 3.15413 10.2202 3.49543C10.31 3.90323 10.2646 4.20235 10.2443 4.30979L9.88203 4.24142C9.89653 4.16459 9.93585 3.9186 9.86014 3.57469C9.81518 3.37048 9.66047 3.22824 9.4917 3.1951Z" fill="#80580D"/>
        <path d="M12.2023 5.76279C12.182 6.06444 11.9211 6.29254 11.6194 6.27226C11.3178 6.25199 11.0897 5.99102 11.1099 5.68937C11.1302 5.38772 11.3912 5.15962 11.6928 5.1799C11.9945 5.20017 12.2226 5.46114 12.2023 5.76279Z" fill="#80580D"/>
        <path d="M15.3013 5.97129C15.281 6.27294 15.02 6.50103 14.7184 6.48076C14.4167 6.46048 14.1886 6.19951 14.2089 5.89787C14.2292 5.59622 14.4901 5.36812 14.7918 5.3884C15.0934 5.40867 15.3215 5.66964 15.3013 5.97129Z" fill="#80580D"/>
        <path fill-rule="evenodd" clip-rule="evenodd" d="M12.5907 3.40335C12.435 3.37279 12.2291 3.42936 12.0635 3.70938C11.9271 3.94007 11.8526 4.31339 11.822 4.71118C11.7919 5.10195 11.8061 5.48696 11.8282 5.71923L11.4612 5.75416C11.4374 5.50374 11.4225 5.09741 11.4544 4.6829C11.4857 4.27541 11.5642 3.82951 11.7462 3.52175C11.9785 3.12872 12.3297 2.9764 12.6617 3.0416C12.9806 3.10421 13.244 3.36238 13.3191 3.70369C13.4089 4.11149 13.3635 4.4106 13.3433 4.51805L12.981 4.44967C12.9955 4.37284 13.0348 4.12685 12.9591 3.78295C12.9141 3.57873 12.7594 3.4365 12.5907 3.40335Z" fill="#80580D"/>
        <path fill-rule="evenodd" clip-rule="evenodd" d="M15.6884 3.61161C15.5327 3.58104 15.3268 3.63761 15.1612 3.91764C15.0248 4.14832 14.9503 4.52165 14.9197 4.91944C14.8896 5.31021 14.9038 5.69521 14.9259 5.92748L14.5589 5.96241C14.5351 5.71199 14.5202 5.30566 14.5521 4.89115C14.5834 4.48366 14.6619 4.03777 14.8439 3.73001C15.0762 3.33697 15.4274 3.18465 15.7594 3.24985C16.0783 3.31246 16.3417 3.57063 16.4168 3.91194C16.5066 4.31974 16.4612 4.61885 16.441 4.7263L16.0787 4.65792C16.0932 4.58109 16.1325 4.3351 16.0568 3.9912C16.0118 3.78698 15.8571 3.64475 15.6884 3.61161Z" fill="#80580D"/>
        <path d="M10.0717 14.5567L13.7713 11.0844C13.9231 10.94 14.0998 10.8746 14.3014 10.8882C14.503 10.9017 14.6739 10.9897 14.8142 11.152C14.9473 11.3139 15.0064 11.5053 14.9916 11.7261C14.9767 11.947 14.8925 12.1296 14.7388 12.2738L10.4752 16.2647C10.3229 16.409 10.146 16.4744 9.94474 16.4609C9.74342 16.4473 9.57628 16.3588 9.44329 16.1953L7.71702 14.0855C7.58442 13.9163 7.52539 13.7236 7.53993 13.5071C7.55448 13.2907 7.63783 13.1103 7.78999 12.966C7.94984 12.8144 8.13085 12.7454 8.33301 12.759C8.53518 12.7726 8.7025 12.865 8.83497 13.0362L10.0717 14.5567Z" fill="#F6C372"/>
        <defs>
            <radialGradient id="paint0_radial_54_171" cx="0" cy="0" r="1" gradientUnits="userSpaceOnUse" gradientTransform="translate(7.40575 3.55799) rotate(37.9676) scale(17.8132 24.5735)">
                <stop stop-color="#FFEC95"/>
                <stop offset="0.322371" stop-color="#FFEB8B"/>
                <stop offset="0.322471" stop-color="#F7D975"/>
                <stop offset="0.59375" stop-color="#F8D975"/>
                <stop offset="0.59385" stop-color="#F6C371"/>
                <stop offset="1" stop-color="#F5C371"/>
            </radialGradient>
            <linearGradient id="paint1_linear_54_171" x1="18.5663" y1="10.4804" x2="2.78924" y2="16.2693" gradientUnits="userSpaceOnUse">
                <stop stop-color="white"/>
                <stop offset="1" stop-color="white"/>
            </linearGradient>
            <linearGradient id="paint2_linear_54_171" x1="6.02456" y1="8.9418" x2="3.38871" y2="20.1654" gradientUnits="userSpaceOnUse">
                <stop stop-color="#F6C372"/>
                <stop offset="1" stop-color="#F99658"/>
            </linearGradient>
            <radialGradient id="paint3_radial_54_171" cx="0" cy="0" r="1" gradientUnits="userSpaceOnUse" gradientTransform="translate(6.39743 3.89181) rotate(16.0965) scale(13.5521 8.4109)">
                <stop stop-color="#FFEC95"/>
                <stop offset="0.322371" stop-color="#FFEB8B"/>
                <stop offset="0.322471" stop-color="#F7D975"/>
                <stop offset="0.59375" stop-color="#F8D975"/>
                <stop offset="0.59385" stop-color="#F6C371"/>
                <stop offset="1" stop-color="#F5C371"/>
            </radialGradient>
        </defs>
    </symbol>
    <symbol xmlns="http://www.w3.org/2000/svg" fill="none" viewBox="0 0 24 24" id="red-cancel">
        <path d="M12 13.0596L15.073 16.1329C15.2115 16.2712 15.3856 16.342 15.5953 16.3454C15.8048 16.3485 15.982 16.2777 16.127 16.1329C16.2718 15.9879 16.3443 15.8122 16.3443 15.6059C16.3443 15.3995 16.2718 15.2239 16.127 15.0789L13.0538 12.0059L16.127 8.93286C16.2653 8.79436 16.3362 8.62028 16.3395 8.41061C16.3427 8.20111 16.2718 8.02386 16.127 7.87886C15.982 7.73403 15.8063 7.66161 15.6 7.66161C15.3937 7.66161 15.218 7.73403 15.073 7.87886L12 10.9521L8.927 7.87886C8.7885 7.74053 8.61442 7.66969 8.40475 7.66636C8.19525 7.66319 8.018 7.73403 7.873 7.87886C7.72817 8.02386 7.65575 8.19953 7.65575 8.40586C7.65575 8.61219 7.72817 8.78786 7.873 8.93286L10.9462 12.0059L7.873 15.0789C7.73467 15.2174 7.66383 15.3914 7.6605 15.6011C7.65733 15.8106 7.72817 15.9879 7.873 16.1329C8.018 16.2777 8.19367 16.3501 8.4 16.3501C8.60633 16.3501 8.782 16.2777 8.927 16.1329L12 13.0596ZM12.0017 21.5059C10.6877 21.5059 9.45267 21.2565 8.2965 20.7579C7.14033 20.2592 6.13467 19.5824 5.2795 18.7276C4.42433 17.8728 3.74725 16.8675 3.24825 15.7119C2.74942 14.5562 2.5 13.3214 2.5 12.0076C2.5 10.6936 2.74933 9.45853 3.248 8.30236C3.74667 7.14619 4.42342 6.14053 5.27825 5.28536C6.13308 4.43019 7.13833 3.75311 8.294 3.25411C9.44967 2.75528 10.6844 2.50586 11.9983 2.50586C13.3123 2.50586 14.5473 2.75519 15.7035 3.25386C16.8597 3.75253 17.8653 4.42928 18.7205 5.28411C19.5757 6.13894 20.2528 7.14419 20.7518 8.29986C21.2506 9.45553 21.5 10.6903 21.5 12.0041C21.5 13.3181 21.2507 14.5532 20.752 15.7094C20.2533 16.8655 19.5766 17.8712 18.7218 18.7264C17.8669 19.5815 16.8617 20.2586 15.706 20.7576C14.5503 21.2564 13.3156 21.5059 12.0017 21.5059ZM12 20.0059C14.2333 20.0059 16.125 19.2309 17.675 17.6809C19.225 16.1309 20 14.2392 20 12.0059C20 9.77253 19.225 7.88086 17.675 6.33086C16.125 4.78086 14.2333 4.00586 12 4.00586C9.76667 4.00586 7.875 4.78086 6.325 6.33086C4.775 7.88086 4 9.77253 4 12.0059C4 14.2392 4.775 16.1309 6.325 17.6809C7.875 19.2309 9.76667 20.0059 12 20.0059Z" fill="#FE1F23"/>
    </symbol>
    <symbol xmlns="http://www.w3.org/2000/svg" fill="none" viewBox="0 0 24 24" id="screen-check">
        <path d="M10.9261 11.819L9.32799 10.221C9.25364 10.1466 9.17256 10.0908 9.08474 10.0537C8.99693 10.0165 8.90654 9.99788 8.81359 9.99788C8.72064 9.99788 8.62609 10.0165 8.52994 10.0537C8.43379 10.0908 8.34854 10.1466 8.27419 10.221C8.12931 10.3658 8.05687 10.5415 8.05687 10.7479C8.05687 10.9543 8.12931 11.1299 8.27419 11.2748L10.2934 13.2998C10.4742 13.4805 10.6851 13.5709 10.9261 13.5709C11.1671 13.5709 11.378 13.4805 11.5588 13.2998L16.0068 9.16516C16.0068 8.96901 15.9934 8.77638 15.9665 8.58728C15.9395 8.39818 15.8568 8.23441 15.7184 8.09596C15.5633 7.94082 15.3851 7.86326 15.1838 7.86326C14.9825 7.86326 14.8043 7.94082 14.6492 8.09596L10.9261 11.819ZM1.38574 20.2382V18.7382H21.8665C22.0793 18.7382 22.2575 18.81 22.4011 18.9536C22.5447 19.0972 22.6164 19.2754 22.6164 19.4882C22.6164 19.701 22.5447 19.8792 22.4011 20.0228C22.2575 20.1664 22.0793 20.2382 21.8665 20.2382H1.38574ZM4.30882 17.7382C3.80368 17.7382 3.37612 17.5632 3.02612 17.2132C2.67612 16.8632 2.50112 16.4356 2.50112 15.9305V5.54596C2.50112 5.04084 2.67612 4.61328 3.02612 4.26328C3.37612 3.91328 3.80368 3.73828 4.30882 3.73828H19.6934C20.1985 3.73828 20.6261 3.91328 20.9761 4.26328C21.3261 4.61328 21.5011 5.04084 21.5011 5.54596V15.9305C21.5011 16.4356 21.3261 16.8632 20.9761 17.2132C20.6261 17.5632 20.1985 17.7382 19.6934 17.7382H4.30882ZM4.30882 16.2382H19.6934C19.7703 16.2382 19.8408 16.2062 19.9049 16.1421C19.969 16.078 20.0011 16.0075 20.0011 15.9305V5.54596C20.0011 5.46902 19.969 5.39851 19.9049 5.33441C19.8408 5.27029 19.7703 5.23823 19.6934 5.23823H4.30882C4.23188 5.23823 4.16136 5.27029 4.09724 5.33441C4.03314 5.39851 4.00109 5.46902 4.00109 5.54596V15.9305C4.00109 16.0075 4.03314 16.078 4.09724 16.1421C4.16136 16.2062 4.23188 16.2382 4.30882 16.2382Z" fill="#4885FF"/>
    </symbol>
    <symbol xmlns="http://www.w3.org/2000/svg" fill="none" viewBox="0 0 24 24" id="shield-tick">
        <path d="M10.9484 12.7027L9.54841 11.3027C9.34841 11.1027 9.11508 11.0027 8.84841 11.0027C8.58175 11.0027 8.34841 11.1027 8.14841 11.3027C7.94841 11.5027 7.84841 11.7402 7.84841 12.0152C7.84841 12.2902 7.94841 12.5277 8.14841 12.7277L10.2484 14.8527C10.4484 15.0527 10.6817 15.1527 10.9484 15.1527C11.2151 15.1527 11.4484 15.0527 11.6484 14.8527L15.8984 10.6027C16.0984 10.4027 16.1984 10.1652 16.1984 9.89021C16.1984 9.61521 16.0984 9.37771 15.8984 9.17771C15.6984 8.97771 15.4609 8.87771 15.1859 8.87771C14.9109 8.87771 14.6734 8.97771 14.4734 9.17771L10.9484 12.7027ZM11.9984 21.9027C11.8817 21.9027 11.7734 21.8944 11.6734 21.8777C11.5734 21.861 11.4734 21.836 11.3734 21.8027C9.12341 21.0527 7.33175 19.6652 5.99841 17.6402C4.66508 15.6152 3.99841 13.436 3.99841 11.1027V6.37771C3.99841 5.96104 4.11925 5.58604 4.36091 5.25271C4.60258 4.91938 4.91508 4.67771 5.29841 4.52771L11.2984 2.27771C11.5317 2.19438 11.7651 2.15271 11.9984 2.15271C12.2317 2.15271 12.4651 2.19438 12.6984 2.27771L18.6984 4.52771C19.0817 4.67771 19.3942 4.91938 19.6359 5.25271C19.8776 5.58604 19.9984 5.96104 19.9984 6.37771V11.1027C19.9984 13.436 19.3317 15.6152 17.9984 17.6402C16.6651 19.6652 14.8734 21.0527 12.6234 21.8027C12.5234 21.836 12.4234 21.861 12.3234 21.8777C12.2234 21.8944 12.1151 21.9027 11.9984 21.9027Z" fill="#27C30D"/>
    </symbol>
    <symbol xmlns="http://www.w3.org/2000/svg" fill="none" viewBox="0 0 24 24" id="speaker">
        <path d="M17 22H7C6.45 22 5.97917 21.8042 5.5875 21.4125C5.19583 21.0208 5 20.55 5 20V4C5 3.45 5.19583 2.97917 5.5875 2.5875C5.97917 2.19583 6.45 2 7 2H17C17.55 2 18.0208 2.19583 18.4125 2.5875C18.8042 2.97917 19 3.45 19 4V20C19 20.55 18.8042 21.0208 18.4125 21.4125C18.0208 21.8042 17.55 22 17 22ZM12 9C12.55 9 13.0208 8.80417 13.4125 8.4125C13.8042 8.02083 14 7.55 14 7C14 6.45 13.8042 5.97917 13.4125 5.5875C13.0208 5.19583 12.55 5 12 5C11.45 5 10.9792 5.19583 10.5875 5.5875C10.1958 5.97917 10 6.45 10 7C10 7.55 10.1958 8.02083 10.5875 8.4125C10.9792 8.80417 11.45 9 12 9ZM12 19C13.1 19 14.0417 18.6083 14.825 17.825C15.6083 17.0417 16 16.1 16 15C16 13.9 15.6083 12.9583 14.825 12.175C14.0417 11.3917 13.1 11 12 11C10.9 11 9.95833 11.3917 9.175 12.175C8.39167 12.9583 8 13.9 8 15C8 16.1 8.39167 17.0417 9.175 17.825C9.95833 18.6083 10.9 19 12 19ZM12 17C11.45 17 10.9792 16.8042 10.5875 16.4125C10.1958 16.0208 10 15.55 10 15C10 14.45 10.1958 13.9792 10.5875 13.5875C10.9792 13.1958 11.45 13 12 13C12.55 13 13.0208 13.1958 13.4125 13.5875C13.8042 13.9792 14 14.45 14 15C14 15.55 13.8042 16.0208 13.4125 16.4125C13.0208 16.8042 12.55 17 12 17Z" fill="#4885FF"/>
    </symbol>
    <symbol xmlns="http://www.w3.org/2000/svg" fill="none" viewBox="0 0 24 24" id="storage">
        <path d="M2.00391 19C2.00391 19.5523 2.45162 20 3.00391 20H21.0039C21.5562 20 22.0039 19.5523 22.0039 19V17C22.0039 16.4477 21.5562 16 21.0039 16H3.00391C2.45162 16 2.00391 16.4477 2.00391 17V19ZM4.00391 17H6.00391V19H4.00391V17ZM3.00391 4C2.45162 4 2.00391 4.44772 2.00391 5V7C2.00391 7.55228 2.45162 8 3.00391 8H21.0039C21.5562 8 22.0039 7.55228 22.0039 7V5C22.0039 4.44772 21.5562 4 21.0039 4H3.00391ZM6.00391 7H4.00391V5H6.00391V7ZM2.00391 13C2.00391 13.5523 2.45162 14 3.00391 14H21.0039C21.5562 14 22.0039 13.5523 22.0039 13V11C22.0039 10.4477 21.5562 10 21.0039 10H3.00391C2.45162 10 2.00391 10.4477 2.00391 11V13ZM4.00391 11H6.00391V13H4.00391V11Z" fill="#4885FF"/>
    </symbol>
    <symbol xmlns="http://www.w3.org/2000/svg" fill="none" viewBox="0 0 24 24" id="support-agent">
        <path d="M12.0016 21.0059C11.7183 21.0059 11.4808 20.91 11.2891 20.7184C11.0974 20.5267 11.0016 20.2892 11.0016 20.0059C11.0016 19.7225 11.0974 19.485 11.2891 19.2934C11.4808 19.1017 11.7183 19.0059 12.0016 19.0059H19.0016V11.9059C19.0016 9.95586 18.3224 8.30169 16.9641 6.94336C15.6058 5.58503 13.9516 4.90586 12.0016 4.90586C10.0516 4.90586 8.39742 5.58503 7.03909 6.94336C5.68075 8.30169 5.00159 9.95586 5.00159 11.9059V17.0059C5.00159 17.2892 4.90575 17.5267 4.71409 17.7184C4.52242 17.91 4.28492 18.0059 4.00159 18.0059C3.45159 18.0059 2.98075 17.81 2.58909 17.4184C2.19742 17.0267 2.00159 16.5559 2.00159 16.0059V14.0059C2.00159 13.6559 2.08909 13.3267 2.26409 13.0184C2.43909 12.71 2.68492 12.4642 3.00159 12.2809L3.07659 10.9559C3.20992 9.82253 3.53909 8.77253 4.06409 7.80586C4.58909 6.83919 5.24742 5.99753 6.03909 5.28086C6.83075 4.56419 7.73909 4.00586 8.76409 3.60586C9.78909 3.20586 10.8683 3.00586 12.0016 3.00586C13.1349 3.00586 14.2099 3.20586 15.2266 3.60586C16.2433 4.00586 17.1516 4.56003 17.9516 5.26836C18.7516 5.97669 19.4099 6.81419 19.9266 7.78086C20.4433 8.74753 20.7766 9.79753 20.9266 10.9309L21.0016 12.2309C21.3183 12.3809 21.5641 12.6059 21.7391 12.9059C21.9141 13.2059 22.0016 13.5225 22.0016 13.8559V16.1559C22.0016 16.4892 21.9141 16.8059 21.7391 17.1059C21.5641 17.4059 21.3183 17.6309 21.0016 17.7809V19.0059C21.0016 19.5559 20.8058 20.0267 20.4141 20.4184C20.0224 20.81 19.5516 21.0059 19.0016 21.0059H12.0016ZM9.00159 14.0059C8.71825 14.0059 8.48075 13.91 8.28909 13.7184C8.09742 13.5267 8.00159 13.2892 8.00159 13.0059C8.00159 12.7225 8.09742 12.485 8.28909 12.2934C8.48075 12.1017 8.71825 12.0059 9.00159 12.0059C9.28492 12.0059 9.52242 12.1017 9.71409 12.2934C9.90575 12.485 10.0016 12.7225 10.0016 13.0059C10.0016 13.2892 9.90575 13.5267 9.71409 13.7184C9.52242 13.91 9.28492 14.0059 9.00159 14.0059ZM15.0016 14.0059C14.7183 14.0059 14.4808 13.91 14.2891 13.7184C14.0974 13.5267 14.0016 13.2892 14.0016 13.0059C14.0016 12.7225 14.0974 12.485 14.2891 12.2934C14.4808 12.1017 14.7183 12.0059 15.0016 12.0059C15.2849 12.0059 15.5224 12.1017 15.7141 12.2934C15.9058 12.485 16.0016 12.7225 16.0016 13.0059C16.0016 13.2892 15.9058 13.5267 15.7141 13.7184C15.5224 13.91 15.2849 14.0059 15.0016 14.0059ZM6.02659 12.4559C5.90992 10.6892 6.44325 9.17253 7.62659 7.90586C8.80992 6.63919 10.2849 6.00586 12.0516 6.00586C13.5349 6.00586 14.8391 6.47669 15.9641 7.41836C17.0891 8.36003 17.7683 9.56419 18.0016 11.0309C16.4849 11.0142 15.0891 10.6059 13.8141 9.80586C12.5391 9.00586 11.5599 7.92253 10.8766 6.55586C10.6099 7.88919 10.0474 9.07669 9.18909 10.1184C8.33075 11.16 7.27659 11.9392 6.02659 12.4559Z" fill="currentColor"/>
    </symbol>
    <symbol xmlns="http://www.w3.org/2000/svg" fill="none" viewBox="0 0 24 24" id="system-platform">
        <path d="M3.5 20C3.08333 20 2.72917 19.8542 2.4375 19.5625C2.14583 19.2708 2 18.9167 2 18.5C2 18.0833 2.14583 17.7292 2.4375 17.4375C2.72917 17.1458 3.08333 17 3.5 17H4V6C4 5.45 4.19583 4.97917 4.5875 4.5875C4.97917 4.19583 5.45 4 6 4H20C20.2833 4 20.5208 4.09583 20.7125 4.2875C20.9042 4.47917 21 4.71667 21 5C21 5.28333 20.9042 5.52083 20.7125 5.7125C20.5208 5.90417 20.2833 6 20 6H6V17H10.5C10.9167 17 11.2708 17.1458 11.5625 17.4375C11.8542 17.7292 12 18.0833 12 18.5C12 18.9167 11.8542 19.2708 11.5625 19.5625C11.2708 19.8542 10.9167 20 10.5 20H3.5ZM15 20C14.7167 20 14.4792 19.9042 14.2875 19.7125C14.0958 19.5208 14 19.2833 14 19V9C14 8.71667 14.0958 8.47917 14.2875 8.2875C14.4792 8.09583 14.7167 8 15 8H21C21.2833 8 21.5208 8.09583 21.7125 8.2875C21.9042 8.47917 22 8.71667 22 9V19C22 19.2833 21.9042 19.5208 21.7125 19.7125C21.5208 19.9042 21.2833 20 21 20H15ZM16 17H20V10H16V17Z" fill="#4885FF"/>
    </symbol>
    <symbol xmlns="http://www.w3.org/2000/svg" fill="none" viewBox="0 0 24 24" id="thunder">
        <path d="M9.00156 15.0123H5.90156C5.50156 15.0123 5.20572 14.8331 5.01406 14.4748C4.82239 14.1165 4.84322 13.7706 5.07656 13.4373L12.5516 2.68729C12.7182 2.45396 12.9349 2.29146 13.2016 2.19979C13.4682 2.10813 13.7432 2.11229 14.0266 2.21229C14.3099 2.31229 14.5182 2.48729 14.6516 2.73729C14.7849 2.98729 14.8349 3.25396 14.8016 3.53729L14.0016 10.0123H17.8766C18.3099 10.0123 18.6141 10.204 18.7891 10.5873C18.9641 10.9706 18.9099 11.329 18.6266 11.6623L10.4016 21.5123C10.2182 21.729 9.99322 21.8706 9.72656 21.9373C9.45989 22.004 9.20156 21.979 8.95156 21.8623C8.70156 21.7456 8.50572 21.5665 8.36406 21.3248C8.22239 21.0831 8.16822 20.8206 8.20156 20.5373L9.00156 15.0123Z" fill="#FCCB1F"/>
    </symbol>
    <symbol xmlns="http://www.w3.org/2000/svg" fill="none" viewBox="0 0 24 24" id="trophy">
        <path d="M7.00391 10.8V7H5.00391V8C5.00391 8.63333 5.18724 9.20417 5.55391 9.7125C5.92057 10.2208 6.40391 10.5833 7.00391 10.8ZM17.0039 10.8C17.6039 10.5833 18.0872 10.2208 18.4539 9.7125C18.8206 9.20417 19.0039 8.63333 19.0039 8V7H17.0039V10.8ZM11.0039 19V15.9C10.1872 15.7167 9.45807 15.3708 8.81641 14.8625C8.17474 14.3542 7.70391 13.7167 7.40391 12.95C6.15391 12.8 5.10807 12.2542 4.26641 11.3125C3.42474 10.3708 3.00391 9.26667 3.00391 8V7C3.00391 6.45 3.19974 5.97917 3.59141 5.5875C3.98307 5.19583 4.45391 5 5.00391 5H7.00391C7.00391 4.45 7.19974 3.97917 7.59141 3.5875C7.98307 3.19583 8.45391 3 9.00391 3H15.0039C15.5539 3 16.0247 3.19583 16.4164 3.5875C16.8081 3.97917 17.0039 4.45 17.0039 5H19.0039C19.5539 5 20.0247 5.19583 20.4164 5.5875C20.8081 5.97917 21.0039 6.45 21.0039 7V8C21.0039 9.26667 20.5831 10.3708 19.7414 11.3125C18.8997 12.2542 17.8539 12.8 16.6039 12.95C16.3039 13.7167 15.8331 14.3542 15.1914 14.8625C14.5497 15.3708 13.8206 15.7167 13.0039 15.9V19H16.0039C16.2872 19 16.5247 19.0958 16.7164 19.2875C16.9081 19.4792 17.0039 19.7167 17.0039 20C17.0039 20.2833 16.9081 20.5208 16.7164 20.7125C16.5247 20.9042 16.2872 21 16.0039 21H8.00391C7.72057 21 7.48307 20.9042 7.29141 20.7125C7.09974 20.5208 7.00391 20.2833 7.00391 20C7.00391 19.7167 7.09974 19.4792 7.29141 19.2875C7.48307 19.0958 7.72057 19 8.00391 19H11.0039Z" fill="#F2CE00"/>
    </symbol>
    <symbol xmlns="http://www.w3.org/2000/svg" fill="none" viewBox="0 0 24 24" id="verified-filled">
        <path d="M8.41049 21.1902L7.02752 18.8648L4.41159 18.303C4.18722 18.2594 4.00803 18.1415 3.874 17.9491C3.73998 17.7568 3.68647 17.5484 3.71348 17.324L3.96927 14.6334L2.19023 12.5983C2.03637 12.4342 1.95944 12.2368 1.95944 12.0059C1.95944 11.7751 2.03637 11.5776 2.19023 11.4136L3.96927 9.3785L3.71348 6.68781C3.68647 6.46344 3.73998 6.25508 3.874 6.06271C4.00803 5.87035 4.18722 5.75241 4.41159 5.7089L7.02752 5.14706L8.41049 2.82169C8.53101 2.62432 8.69512 2.48971 8.90282 2.41787C9.11052 2.34602 9.32147 2.35694 9.53567 2.45062L12.0013 3.49304L14.467 2.45062C14.6812 2.35694 14.8921 2.34602 15.0998 2.41787C15.3075 2.48971 15.4716 2.62432 15.5922 2.82169L16.9751 5.14706L19.5911 5.7089C19.8154 5.75241 19.9946 5.87035 20.1286 6.06271C20.2627 6.25508 20.3162 6.46344 20.2892 6.68781L20.0334 9.3785L21.8124 11.4136C21.9663 11.5776 22.0432 11.7751 22.0432 12.0059C22.0432 12.2368 21.9663 12.4342 21.8124 12.5983L20.0334 14.6334L20.2892 17.324C20.3162 17.5484 20.2627 17.7568 20.1286 17.9491C19.9946 18.1415 19.8154 18.2594 19.5911 18.303L16.9751 18.8648L15.5922 21.1902C15.4716 21.3875 15.3075 21.5221 15.0998 21.594C14.8921 21.6658 14.6812 21.6549 14.467 21.5612L12.0013 20.5188L9.53567 21.5612C9.32147 21.6549 9.11052 21.6658 8.90282 21.594C8.69512 21.5221 8.53101 21.3875 8.41049 21.1902Z" fill="white"/>
        <path d="M10.9512 13.0716L9.32789 11.4636C9.18937 11.3251 9.01784 11.2542 8.81331 11.2511C8.60877 11.2479 8.42891 11.3238 8.27372 11.4788C8.12886 11.6239 8.05643 11.7996 8.05643 12.0059C8.05643 12.2123 8.12886 12.388 8.27372 12.533L10.3183 14.5776C10.4992 14.7583 10.7101 14.8486 10.9512 14.8486C11.1922 14.8486 11.4031 14.7583 11.584 14.5776L15.7289 10.4327C15.8776 10.2838 15.951 10.1097 15.949 9.91034C15.9471 9.71097 15.8738 9.53369 15.7289 9.3785C15.5737 9.22348 15.3955 9.14338 15.1941 9.13821C14.9929 9.13305 14.8147 9.20806 14.6595 9.36325L10.9512 13.0716ZM8.41049 21.1902L7.02752 18.8648L4.41159 18.303C4.18722 18.2594 4.00803 18.1415 3.874 17.9491C3.73998 17.7568 3.68647 17.5484 3.71348 17.324L3.96927 14.6334L2.19023 12.5983C2.03637 12.4342 1.95944 12.2368 1.95944 12.0059C1.95944 11.7751 2.03637 11.5776 2.19023 11.4136L3.96927 9.3785L3.71348 6.68781C3.68647 6.46344 3.73998 6.25508 3.874 6.06271C4.00803 5.87035 4.18722 5.75241 4.41159 5.7089L7.02752 5.14706L8.41049 2.82169C8.53101 2.62432 8.69512 2.48971 8.90282 2.41787C9.11052 2.34602 9.32147 2.35694 9.53567 2.45062L12.0013 3.49304L14.467 2.45062C14.6812 2.35694 14.8921 2.34602 15.0998 2.41787C15.3075 2.48971 15.4716 2.62432 15.5922 2.82169L16.9751 5.14706L19.5911 5.7089C19.8154 5.75241 19.9946 5.87035 20.1286 6.06271C20.2627 6.25508 20.3162 6.46344 20.2892 6.68781L20.0334 9.3785L21.8124 11.4136C21.9663 11.5776 22.0432 11.7751 22.0432 12.0059C22.0432 12.2368 21.9663 12.4342 21.8124 12.5983L20.0334 14.6334L20.2892 17.324C20.3162 17.5484 20.2627 17.7568 20.1286 17.9491C19.9946 18.1415 19.8154 18.2594 19.5911 18.303L16.9751 18.8648L15.5922 21.1902C15.4716 21.3875 15.3075 21.5221 15.0998 21.594C14.8921 21.6658 14.6812 21.6549 14.467 21.5612L12.0013 20.5188L9.53567 21.5612C9.32147 21.6549 9.11052 21.6658 8.90282 21.594C8.69512 21.5221 8.53101 21.3875 8.41049 21.1902Z" fill="#4885FF"/>
    </symbol>
    <symbol xmlns="http://www.w3.org/2000/svg" fill="none" viewBox="0 0 24 24" id="verified-outlined">
        <path d="M8.41289 21.1875L7.03014 18.8625L4.41464 18.3007C4.19031 18.2572 4.01114 18.1393 3.87714 17.947C3.74314 17.7546 3.68964 17.5463 3.71664 17.322L3.97239 14.6317L2.19364 12.597C2.03981 12.433 1.96289 12.2356 1.96289 12.0047C1.96289 11.7739 2.03981 11.5765 2.19364 11.4125L3.97239 9.37773L3.71664 6.68748C3.68964 6.46315 3.74314 6.25481 3.87714 6.06248C4.01114 5.87015 4.19031 5.75223 4.41464 5.70873L7.03014 5.14698L8.41289 2.82198C8.53339 2.62464 8.69747 2.49006 8.90514 2.41823C9.11281 2.34639 9.32372 2.35731 9.53789 2.45098L12.0031 3.49323L14.4684 2.45098C14.6826 2.35731 14.8935 2.34639 15.1011 2.41823C15.3088 2.49006 15.4729 2.62464 15.5934 2.82198L16.9761 5.14698L19.5916 5.70873C19.816 5.75223 19.9951 5.87015 20.1291 6.06248C20.2631 6.25481 20.3166 6.46315 20.2896 6.68748L20.0339 9.37773L21.8126 11.4125C21.9665 11.5765 22.0434 11.7739 22.0434 12.0047C22.0434 12.2356 21.9665 12.433 21.8126 12.597L20.0339 14.6317L20.2896 17.322C20.3166 17.5463 20.2631 17.7546 20.1291 17.947C19.9951 18.1393 19.816 18.2572 19.5916 18.3007L16.9761 18.8625L15.5934 21.1875C15.4729 21.3848 15.3088 21.5194 15.1011 21.5912C14.8935 21.6631 14.6826 21.6521 14.4684 21.5585L12.0031 20.5162L9.53789 21.5585C9.32372 21.6521 9.11281 21.6631 8.90514 21.5912C8.69747 21.5194 8.53339 21.3848 8.41289 21.1875Z" fill="white"/>
        <path fill-rule="evenodd" clip-rule="evenodd" d="M7.03014 18.8625L8.41289 21.1875C8.53339 21.3848 8.69747 21.5194 8.90514 21.5912C9.11281 21.6631 9.32372 21.6521 9.53789 21.5585L12.0031 20.5162L14.4684 21.5585C14.6826 21.6521 14.8935 21.6631 15.1011 21.5912C15.3088 21.5194 15.4729 21.3848 15.5934 21.1875L16.9761 18.8625L19.5916 18.3007C19.816 18.2572 19.9951 18.1393 20.1291 17.947C20.2631 17.7546 20.3166 17.5463 20.2896 17.322L20.0339 14.6317L21.8126 12.597C21.9665 12.433 22.0434 12.2356 22.0434 12.0047C22.0434 11.7739 21.9665 11.5765 21.8126 11.4125L20.0339 9.37773L20.2896 6.68748C20.3166 6.46315 20.2631 6.25481 20.1291 6.06248C19.9951 5.87014 19.816 5.75223 19.5916 5.70873L16.9761 5.14698L15.5934 2.82198C15.4729 2.62464 15.3088 2.49006 15.1011 2.41823C14.8935 2.34639 14.6826 2.35731 14.4684 2.45098L12.0031 3.49323L9.53789 2.45098C9.32372 2.35731 9.11281 2.34639 8.90514 2.41823C8.69747 2.49006 8.53339 2.62464 8.41289 2.82198L7.03014 5.14698L4.41464 5.70873C4.19031 5.75223 4.01114 5.87014 3.87714 6.06248C3.74314 6.25481 3.68964 6.46315 3.71664 6.68748L3.97239 9.37773L2.19364 11.4125C2.03981 11.5765 1.96289 11.7739 1.96289 12.0047C1.96289 12.2356 2.03981 12.433 2.19364 12.597L3.97239 14.6317L3.71664 17.322C3.68964 17.5463 3.74314 17.7546 3.87714 17.947C4.01114 18.1393 4.19031 18.2572 4.41464 18.3007L7.03014 18.8625ZM9.31165 3.65791L7.79379 6.21009L4.93481 6.82413L5.21566 9.77844L3.26947 12.0047L5.21566 14.231L4.93481 17.1853L7.79379 17.7994L9.31165 20.3515L12.0031 19.2136L14.6946 20.3515L16.2125 17.7994L19.0715 17.1853L18.7906 14.231L20.7368 12.0047L18.7906 9.77844L19.0715 6.82413L16.2125 6.21009L14.6946 3.65791L12.0031 4.79581L9.31165 3.65791Z" fill="#4885FF"/>
        <path fill-rule="evenodd" clip-rule="evenodd" d="M10.3217 14.5777L8.2774 12.5334C8.13257 12.3884 8.06015 12.2127 8.06015 12.0064C8.06015 11.8001 8.13257 11.6244 8.2774 11.4794C8.43257 11.3244 8.6124 11.2485 8.8169 11.2517C9.0214 11.2548 9.1929 11.3257 9.3314 11.4642L10.9544 13.0719L14.6622 9.36417C14.8173 9.209 14.9955 9.134 15.1967 9.13917C15.398 9.14433 15.5762 9.22441 15.7314 9.37941C15.8762 9.53458 15.9496 9.71183 15.9514 9.91117C15.9534 10.1105 15.8801 10.2846 15.7314 10.4334L11.5872 14.5777C11.4063 14.7583 11.1954 14.8487 10.9544 14.8487C10.7134 14.8487 10.5025 14.7583 10.3217 14.5777ZM8.48304 12.3125L8.48562 12.3151L8.48304 12.3125Z" fill="#4885FF"/>
    </symbol>
</svg>